# xmcd
#
# Track frame offsets:
#	150
#	10678
#	24241
#	36972
#	50368
#	63103
#	76616
#	87233
#	99737
#	112528
#	124798
#	137032
#	149399
#	162278
#	177912
#
# Disc length: 2575
#
# Revision: 3
# Processed by: cddbd v1.5.1PL0 Copyright (c) Steve Scherf et al.
# Submitted via: CDex 1.30
# Normalized: r1:DSETVAR1,TDELIM( - ),TSWAP
#
DISCID=af0a0d0f
DTITLE=Various Artist - World of country and western, The - CD2
DYEAR=2001
DGENRE=Country
TTITLE0=Buck Owens - Right after the dance
TTITLE1=Tex Williams - Leaf of love, The
TTITLE2=Bob Wills - Stay a little longer
TTITLE3=Hank Snow - My San Antonio mama
TTITLE4=Tex Ritter - I'm wasting my tears on you
TTITLE5=Roy Acuff - It won't be long 'till I'll be leaving
TTITLE6=Faron Young - Waterloo
TTITLE7=Bobby bare - 500 miles away from home
TTITLE8=Jimmie Rodgers - Peach pickin' time in Georgia
TTITLE9=Hank Thompson - (I got a) Humpty Dumpty heart
TTITLE10=Bobby Bare - The Streets of Baltimore
TTITLE11=Jimmie Davis - Sweethearts or strangers
TTITLE12=Eddy Arnold - Each minute seems like a million years
TTITLE13=Willie Nelson - Whisky river
TTITLE14=Don Gibson - Sweet dreams
EXTD=\nYEAR: 2001  ID3G:   2
EXTT0=
EXTT1=
EXTT2=
EXTT3=
EXTT4=
EXTT5=
EXTT6=
EXTT7=
EXTT8=
EXTT9=
EXTT10=
EXTT11=
EXTT12=
EXTT13=
EXTT14=
PLAYORDER=
